# Blender 4.2.3 LTS
# www.blender.org
mtllib cardboardBox.mtl
o Cube
v 1.000000 1.000000 -1.000000
v 1.000000 -1.000000 -1.000000
v 1.000000 1.000000 1.000000
v 1.000000 -1.000000 1.000000
v -1.000000 1.000000 -1.000000
v -1.000000 -1.000000 -1.000000
v -1.000000 1.000000 1.000000
v -1.000000 -1.000000 1.000000
v 0.883542 1.606323 -1.678651
v -1.116458 1.606323 -1.678651
v 1.003115 1.642257 1.647190
v -0.996885 1.642257 1.647190
v 0.985128 1.010192 -0.976022
v 0.982679 -0.982679 -0.982679
v 0.985724 1.010155 0.975647
v 0.982679 -0.982679 0.982679
v -0.986026 1.011265 -0.975962
v -0.982679 -0.982679 -0.982679
v -0.985700 1.010128 0.975650
v -0.982679 -0.982679 0.982679
v 0.883542 1.628695 -1.658664
v -1.116458 1.628695 -1.658664
v 1.003115 1.663552 1.626058
v -0.996885 1.663552 1.626058
vn -0.0000 -0.0000 1.0000
vn -1.0000 -0.0000 -0.0000
vn -0.0000 -1.0000 -0.0000
vn 1.0000 -0.0000 -0.0000
vn -0.0000 -0.0000 -1.0000
vn -0.0000 -0.7457 -0.6663
vn -0.0000 -0.7098 0.7044
vn -0.0000 -0.0035 -1.0000
vn 1.0000 0.0016 -0.0001
vn -0.0000 1.0000 -0.0000
vn -1.0000 0.0014 0.0002
vn -0.0000 -0.0034 1.0000
vn 0.0002 0.7414 0.6711
vn -0.0000 0.7055 -0.7087
vn 0.5724 0.8200 -0.0001
vn -0.6034 0.7975 0.0003
vn -0.0000 0.6663 -0.7457
vn 0.9512 0.2890 0.1077
vn -0.9660 0.0790 0.2462
vn -0.0000 0.7044 0.7098
vn -0.9673 0.1765 -0.1822
vn 0.9677 0.1707 -0.1857
vt 0.375000 0.750000
vt 0.625000 0.750000
vt 0.625000 1.000000
vt 0.375000 1.000000
vt 0.375000 0.000000
vt 0.625000 0.000000
vt 0.625000 0.250000
vt 0.375000 0.250000
vt 0.125000 0.500000
vt 0.375000 0.500000
vt 0.125000 0.750000
vt 0.625000 0.500000
s 0
usemtl Material
f 4/1/1 3/2/1 7/3/1 8/4/1
f 8/5/2 7/6/2 5/7/2 6/8/2
f 6/9/3 2/10/3 4/1/3 8/11/3
f 2/10/4 1/12/4 3/2/4 4/1/4
f 6/8/5 5/7/5 1/12/5 2/10/5
f 1/12/6 5/7/6 10/7/6 9/12/6
f 7/3/7 3/2/7 11/2/7 12/3/7
f 16/1/8 20/4/8 19/3/8 15/2/8
f 20/5/9 18/8/9 17/7/9 19/6/9
f 18/9/10 20/11/10 16/1/10 14/10/10
f 14/10/11 16/1/11 15/2/11 13/12/11
f 18/8/12 14/10/12 13/12/12 17/7/12
f 13/12/13 21/12/13 22/7/13 17/7/13
f 19/3/14 24/3/14 23/2/14 15/2/14
f 3/2/15 1/12/15 13/12/15 15/2/15
f 5/7/16 7/6/16 19/6/16 17/7/16
f 9/12/17 10/7/17 22/7/17 21/12/17
f 1/12/18 9/12/18 21/12/18 13/12/18
f 10/7/19 5/7/19 17/7/19 22/7/19
f 12/3/20 11/2/20 23/2/20 24/3/20
f 7/3/21 12/3/21 24/3/21 19/3/21
f 11/2/22 3/2/22 15/2/22 23/2/22
