# WaveFront *.obj file (generated by Autodesk ATF)

mtllib Alan Key.mtl

g Body1

v -7.366000 0.366617 -6.350000
v -7.366000 -0.366617 -6.350000
v -7.366000 -0.733235 -5.715000
v -7.366000 -0.366617 -5.080000
v -7.366000 0.366617 -5.080000
v -7.366000 0.733235 -5.715000
v -3.175000 -0.733235 -5.715000
v -3.847198 -0.345141 -5.042803
v -3.866443 -0.354260 -5.058597
v -3.888399 -0.361036 -5.070333
v -3.912224 -0.365209 -5.077560
v -3.937000 -0.366617 -5.080000
v -2.921000 -0.366617 -6.350000
v -2.846671 -0.370844 -6.342679
v -2.775198 -0.383362 -6.320998
v -2.709328 -0.403689 -6.285790
v -2.651592 -0.431045 -6.238408
v -2.921000 0.366617 -6.350000
v -2.540000 -0.366617 1.778000
v -2.540000 0.366617 1.778000
v -3.175000 0.733235 1.778000
v -3.810000 0.366617 1.778000
v -3.810000 -0.366617 1.778000
v -3.175000 -0.733235 1.778000
v -3.847198 0.345141 -5.042803
v -3.866443 0.354260 -5.058597
v -3.888399 0.361036 -5.070333
v -3.912224 0.365209 -5.077560
v -3.937000 0.366617 -5.080000
v -3.831403 -0.354260 -5.023558
v -3.819667 -0.361036 -5.001601
v -3.812440 -0.365209 -4.977777
v -3.810000 -0.366617 -4.953000
v -3.810000 0.366617 -4.953000
v -3.812440 0.365209 -4.977777
v -3.819667 0.361036 -5.001601
v -3.831403 0.354260 -5.023558
v -2.846671 0.370844 -6.342679
v -2.775198 0.383362 -6.320998
v -2.709328 0.403689 -6.285790
v -2.651592 0.431045 -6.238408
v -2.604210 0.403689 -6.180672
v -2.569002 0.383362 -6.114803
v -2.547321 0.370844 -6.043330
v -2.540000 0.366617 -5.969000
v -2.540000 -0.366617 -5.969000
v -2.547321 -0.370844 -6.043330
v -2.569002 -0.383362 -6.114803
v -2.604210 -0.403689 -6.180672
v -3.175000 0.733235 -5.715000
vt -0.635000 -0.366617 0.000000
vt 0.000000 -0.733235 0.000000
vt -0.635000 0.366617 0.000000
vt 0.000000 0.733235 0.000000
vt 0.635000 -0.366617 0.000000
vt 0.635000 0.366617 0.000000
vt 3.297927 2.688083 0.000000
vt 2.743654 3.168098 0.000000
vt 1.053120 0.096003 0.000000
vt 0.000000 -0.000000 0.000000
vt 1.039030 0.075429 0.000000
vt 1.029741 0.051956 0.000000
vt 1.025611 0.026487 0.000000
vt 1.026799 0.000000 0.000000
vt 3.713632 3.168098 0.000000
vt 3.159359 3.648113 0.000000
vt 0.969979 0.000000 0.000000
vt 0.249423 0.288009 0.000000
vt 0.207153 0.226287 0.000000
vt 0.179288 0.155869 0.000000
vt 0.166898 0.079461 0.000000
vt 0.170460 -0.000000 0.000000
vt 0.733235 4.826000 0.000000
vt 0.000000 4.826000 0.000000
vt 0.733235 0.381000 0.000000
vt 0.000000 0.381000 0.000000
vt 0.635000 0.366617 0.000000
vt 0.000000 0.733235 0.000000
vt 0.635000 -0.366617 0.000000
vt 0.000000 -0.733235 0.000000
vt -0.635000 0.366617 0.000000
vt -0.635000 -0.366617 0.000000
vt 0.720878 0.024936 0.000000
vt 0.012357 0.024936 0.000000
vt 0.711759 0.000000 0.000000
vt 0.021476 0.000000 0.000000
vt 0.720878 -0.024936 0.000000
vt 0.012357 -0.024936 0.000000
vt 0.005581 -0.049873 0.000000
vt 0.727653 0.049873 0.000000
vt 0.005581 0.049873 0.000000
vt 0.731826 0.074809 0.000000
vt 0.001409 0.074809 0.000000
vt 0.000000 0.099746 0.000000
vt 0.733235 0.099746 0.000000
vt 0.727653 -0.049873 0.000000
vt 0.001409 -0.074809 0.000000
vt 0.731826 -0.074809 0.000000
vt 0.733235 -0.099746 0.000000
vt 0.000000 -0.099746 0.000000
vt 0.733235 6.223000 0.000000
vt 0.000000 6.223000 0.000000
vt 0.733235 -0.508000 0.000000
vt 0.000000 -0.508000 0.000000
vt -0.770307 -0.074809 0.000000
vt 0.037072 -0.074809 0.000000
vt -0.797663 0.000000 0.000000
vt 0.064428 0.000000 0.000000
vt -0.770307 0.074809 0.000000
vt 0.037072 0.074809 0.000000
vt 0.016744 0.149618 0.000000
vt -0.749979 -0.149618 0.000000
vt 0.016744 -0.149618 0.000000
vt -0.737462 -0.224428 0.000000
vt 0.004227 -0.224428 0.000000
vt -0.000000 -0.299237 0.000000
vt -0.733235 -0.299237 0.000000
vt -0.749979 0.149618 0.000000
vt 0.004227 0.224428 0.000000
vt -0.737462 0.224428 0.000000
vt -0.733235 0.299237 0.000000
vt -0.000000 0.299237 0.000000
vt -2.743654 3.168098 0.000000
vt -0.000000 -0.000000 0.000000
vt -2.189380 3.648113 0.000000
vt 0.720556 0.288009 0.000000
vt 0.762825 0.226287 0.000000
vt 0.790691 0.155869 0.000000
vt 0.803080 0.079461 0.000000
vt 0.799518 0.000000 0.000000
vt -2.327949 2.688083 0.000000
vt -0.083141 0.096003 0.000000
vt -1.773675 3.168098 0.000000
vt 0.969979 -0.000000 0.000000
vt -0.069051 0.075429 0.000000
vt -0.059763 0.051956 0.000000
vt -0.055633 0.026487 0.000000
vt -0.056820 0.000000 0.000000
vt 0.733235 3.556000 0.000000
vt 0.000000 3.556000 0.000000
vt 0.733235 0.127000 0.000000
vt 0.000000 0.127000 0.000000
vt 0.724782 7.313330 0.000000
vt 0.699746 7.384803 0.000000
vt 0.733235 7.239000 0.000000
vt 0.659091 7.450673 0.000000
vt 0.733235 -0.508000 0.000000
vt 0.604379 7.508408 0.000000
vt 0.000000 -0.508000 0.000000
vt 0.000000 6.985000 0.000000
vt -0.000000 -0.508000 0.000000
vt 0.733235 -0.508000 0.000000
vt 0.000000 6.223000 0.000000
vt 0.733235 6.985000 0.000000
vt -0.002818 6.247777 0.000000
vt -0.011163 6.271601 0.000000
vt -0.024714 6.293558 0.000000
vt -0.042952 6.312803 0.000000
vt 0.733235 -0.508000 0.000000
vt 0.733235 6.223000 0.000000
vt 0.000000 -0.508000 0.000000
vt 0.000000 6.985000 0.000000
vt 0.736053 6.247777 0.000000
vt 0.744398 6.271601 0.000000
vt 0.757949 6.293558 0.000000
vt 0.776187 6.312803 0.000000
vt 0.074143 7.450673 0.000000
vt -0.000000 -0.508000 0.000000
vt 0.128856 7.508408 0.000000
vt 0.733235 -0.508000 0.000000
vt 0.733235 6.985000 0.000000
vt 0.000000 7.239000 0.000000
vt 0.033489 7.384803 0.000000
vt 0.008453 7.313330 0.000000
vt 0.733235 7.239000 0.000000
vt 0.000000 7.239000 0.000000
vt 0.733235 -0.508000 0.000000
vt -0.000000 -0.508000 0.000000
vn -1.000000 -0.000000 -0.000000
vn -1.000000 -0.000000 -0.000000
vn -1.000000 -0.000000 -0.000000
vn -1.000000 -0.000000 -0.000000
vn -1.000000 -0.000000 -0.000000
vn -1.000000 -0.000000 -0.000000
vn 0.000000 -0.866025 0.500000
vn 0.000000 -0.866025 0.500000
vn 0.000000 -0.866025 0.500000
vn 0.000000 -0.866025 0.500000
vn 0.000000 -0.866025 0.500000
vn 0.000000 -0.866025 0.500000
vn 0.000000 -0.866025 0.500000
vn 0.000000 -0.866025 0.500000
vn -0.000000 -0.866025 -0.500000
vn -0.000000 -0.866025 -0.500000
vn -0.000000 -0.866025 -0.500000
vn -0.000000 -0.866025 -0.500000
vn -0.000000 -0.866025 -0.500000
vn -0.000000 -0.866025 -0.500000
vn -0.000000 -0.866025 -0.500000
vn -0.000000 -0.866025 -0.500000
vn 0.000000 0.000000 -1.000000
vn 0.000000 0.000000 -1.000000
vn 0.000000 0.000000 -1.000000
vn 0.000000 0.000000 -1.000000
vn 0.000000 0.000000 1.000000
vn 0.000000 0.000000 1.000000
vn 0.000000 0.000000 1.000000
vn 0.000000 0.000000 1.000000
vn 0.000000 0.000000 1.000000
vn 0.000000 0.000000 1.000000
vn -0.555570 -0.000000 0.831470
vn -0.555570 -0.000000 0.831470
vn -0.707107 -0.000000 0.707107
vn -0.707107 -0.000000 0.707107
vn -0.831470 -0.000000 0.555570
vn -0.831470 -0.000000 0.555570
vn -0.923880 -0.000000 0.382683
vn -0.382683 -0.000000 0.923880
vn -0.382683 -0.000000 0.923880
vn -0.195090 -0.000000 0.980785
vn -0.195090 -0.000000 0.980785
vn 0.000000 -0.000000 1.000000
vn 0.000000 -0.000000 1.000000
vn -0.923880 -0.000000 0.382683
vn -0.980785 -0.000000 0.195090
vn -0.980785 -0.000000 0.195090
vn -1.000000 -0.000000 0.000000
vn -1.000000 -0.000000 0.000000
vn -1.000000 -0.000000 -0.000000
vn -1.000000 -0.000000 -0.000000
vn 0.555570 0.000000 -0.831470
vn 0.555570 0.000000 -0.831470
vn 0.707107 0.000000 -0.707107
vn 0.707107 0.000000 -0.707107
vn 0.831470 0.000000 -0.555570
vn 0.831470 0.000000 -0.555570
vn 0.923880 0.000000 -0.382683
vn 0.382683 0.000000 -0.923880
vn 0.382683 0.000000 -0.923880
vn 0.195090 0.000000 -0.980785
vn 0.195090 0.000000 -0.980785
vn 0.923880 0.000000 -0.382683
vn 0.980785 0.000000 -0.195090
vn 0.980785 0.000000 -0.195090
vn 1.000000 -0.000000 -0.000000
vn 1.000000 -0.000000 -0.000000
vn 0.000000 0.866025 -0.500000
vn 0.000000 0.866025 -0.500000
vn 0.000000 0.866025 -0.500000
vn 0.000000 0.866025 -0.500000
vn 0.000000 0.866025 -0.500000
vn 0.000000 0.866025 -0.500000
vn 0.000000 0.866025 -0.500000
vn 0.000000 0.866025 -0.500000
vn 0.000000 0.866025 0.500000
vn 0.000000 0.866025 0.500000
vn 0.000000 0.866025 0.500000
vn 0.000000 0.866025 0.500000
vn 0.000000 0.866025 0.500000
vn 0.000000 0.866025 0.500000
vn 0.000000 0.866025 0.500000
vn 0.000000 0.866025 0.500000
vn 0.000000 0.000000 1.000000
vn 0.000000 0.000000 1.000000
vn 0.500000 0.866025 0.000000
vn 0.500000 0.866025 0.000000
vn 0.500000 0.866025 0.000000
vn 0.500000 0.866025 0.000000
vn 0.500000 0.866025 0.000000
vn 0.500000 0.866025 0.000000
vn 0.500000 0.866025 0.000000
vn 0.500000 0.866025 0.000000
vn -0.500000 0.866025 0.000000
vn -0.500000 0.866025 0.000000
vn -0.500000 0.866025 0.000000
vn -0.500000 0.866025 0.000000
vn -0.500000 0.866025 0.000000
vn -0.500000 0.866025 0.000000
vn -0.500000 0.866025 0.000000
vn -0.500000 0.866025 0.000000
vn -0.500000 -0.866025 -0.000000
vn -0.500000 -0.866025 -0.000000
vn -0.500000 -0.866025 -0.000000
vn -0.500000 -0.866025 -0.000000
vn -0.500000 -0.866025 -0.000000
vn -0.500000 -0.866025 -0.000000
vn -0.500000 -0.866025 -0.000000
vn -0.500000 -0.866025 -0.000000
vn 0.500000 -0.866025 0.000000
vn 0.500000 -0.866025 0.000000
vn 0.500000 -0.866025 0.000000
vn 0.500000 -0.866025 0.000000
vn 0.500000 -0.866025 0.000000
vn 0.500000 -0.866025 0.000000
vn 0.500000 -0.866025 0.000000
vn 0.500000 -0.866025 0.000000
vn 1.000000 -0.000000 0.000000
vn 1.000000 -0.000000 0.000000
usemtl Steel_-_Satin
f 2/1/1 3/2/2 1/3/3
f 1/3/3 3/2/2 6/4/4
f 6/4/4 3/2/2 4/5/5
f 6/4/4 4/5/5 5/6/6
f 4/7/7 3/8/8 12/9/9
f 12/9/9 3/8/8 7/10/10
f 12/9/9 7/10/10 11/11/11
f 11/11/11 7/10/10 10/12/12
f 10/12/12 7/10/10 9/13/13
f 9/13/13 7/10/10 8/14/14
f 3/15/15 2/16/16 7/17/17
f 7/17/17 2/16/16 13/18/18
f 7/17/17 13/18/18 14/19/19
f 14/19/19 15/20/20 7/17/17
f 7/17/17 15/20/20 16/21/21
f 7/17/17 16/21/21 17/22/22
f 2/23/23 1/24/24 13/25/25
f 13/25/25 1/24/24 18/26/26
f 20/27/27 21/28/28 19/29/29
f 19/29/29 21/28/28 24/30/30
f 24/30/30 21/28/28 22/31/31
f 24/30/30 22/31/31 23/32/32
f 26/33/33 9/34/34 25/35/35
f 25/35/35 9/34/34 8/36/36
f 25/35/35 8/36/36 37/37/37
f 37/37/37 8/36/36 30/38/38
f 37/37/37 30/38/38 31/39/39
f 26/33/33 27/40/40 9/34/34
f 9/34/34 27/40/40 10/41/41
f 10/41/41 27/40/40 28/42/42
f 10/41/41 28/42/42 11/43/43
f 11/43/43 28/42/42 12/44/44
f 12/44/44 28/42/42 29/45/45
f 37/37/37 31/39/39 36/46/46
f 36/46/46 31/39/39 32/47/47
f 36/46/46 32/47/47 35/48/48
f 35/48/48 32/47/47 34/49/49
f 34/49/49 32/47/47 33/50/50
f 34/51/49 33/52/50 22/53/51
f 22/53/51 33/52/50 23/54/52
f 16/55/53 40/56/54 17/57/55
f 17/57/55 40/56/54 41/58/56
f 17/57/55 41/58/56 49/59/57
f 49/59/57 41/58/56 42/60/58
f 49/59/57 42/60/58 43/61/59
f 16/55/53 15/62/60 40/56/54
f 40/56/54 15/62/60 39/63/61
f 39/63/61 15/62/60 14/64/62
f 39/63/61 14/64/62 38/65/63
f 38/65/63 14/64/62 18/66/26
f 18/66/26 14/64/62 13/67/25
f 49/59/57 43/61/59 48/68/64
f 48/68/64 43/61/59 44/69/65
f 48/68/64 44/69/65 47/70/66
f 47/70/66 44/69/65 46/71/67
f 46/71/67 44/69/65 45/72/68
f 6/73/69 50/74/70 1/75/71
f 1/75/71 50/74/70 18/76/72
f 18/76/72 50/74/70 38/77/73
f 38/77/73 50/74/70 39/78/74
f 39/78/74 50/74/70 40/79/75
f 40/79/75 50/74/70 41/80/76
f 5/81/77 29/82/78 6/83/79
f 6/83/79 29/82/78 50/84/80
f 50/84/80 29/82/78 28/85/81
f 50/84/80 28/85/81 27/86/82
f 27/86/82 26/87/83 50/84/80
f 50/84/80 26/87/83 25/88/84
f 5/89/85 4/90/86 29/91/45
f 29/91/45 4/90/86 12/92/44
f 44/93/87 43/94/88 45/95/89
f 45/95/89 43/94/88 42/96/90
f 45/95/89 42/96/90 20/97/91
f 20/97/91 42/96/90 41/98/92
f 20/97/91 41/98/92 21/99/93
f 21/99/93 41/98/92 50/100/94
f 22/101/95 21/102/96 34/103/97
f 34/103/97 21/102/96 50/104/98
f 34/103/97 50/104/98 35/105/99
f 35/105/99 50/104/98 36/106/100
f 36/106/100 50/104/98 37/107/101
f 37/107/101 50/104/98 25/108/102
f 23/109/103 33/110/104 24/111/105
f 24/111/105 33/110/104 7/112/106
f 7/112/106 33/110/104 32/113/107
f 7/112/106 32/113/107 31/114/108
f 31/114/108 30/115/109 7/112/106
f 7/112/106 30/115/109 8/116/110
f 49/117/111 19/118/112 17/119/113
f 17/119/113 19/118/112 24/120/114
f 17/119/113 24/120/114 7/121/115
f 19/118/112 49/117/111 46/122/116
f 46/122/116 49/117/111 48/123/117
f 46/122/116 48/123/117 47/124/118
f 46/125/67 45/126/68 19/127/119
f 19/127/119 45/126/68 20/128/120
# 50 vertices
# 128 texture params
# 120 normals
# 96 facets

# 1 groups
